<?xml version="1.0" encoding="UTF-8"?>
<svg width="81px" height="62px" viewBox="0 0 81 62" version="1.1" xmlns="http://www.w3.org/2000/svg" xmlns:xlink="http://www.w3.org/1999/xlink">
    <title>Group 19</title>
    <g id="Page-1" stroke="none" stroke-width="1" fill="none" fill-rule="evenodd">
        <g id="Desktop-HD-Copy-6" transform="translate(-690.000000, -55.000000)">
            <g id="Group-19" transform="translate(690.000000, 55.000000)">
                <path d="M42,25 L42,36 L45.9051659,36 C46.7115728,36 47.4822979,35.8809376 48.2177378,35.6424105 L48.2177378,35.6424105 C48.9527812,35.4046879 49.6006026,35.0551432 50.1623915,34.5937763 L50.1623915,34.5937763 C50.7233874,34.1328116 51.1702018,33.5632428 51.5024383,32.8850697 L51.5024383,32.8850697 C51.8338818,32.2064943 52,31.4217282 52,30.5307712 L52,30.5307712 C52,29.5267854 51.8287277,28.6724321 51.4869762,27.967309 L51.4869762,27.967309 C51.1448281,27.2633927 50.6833446,26.6914104 50.1013361,26.2509599 L50.1013361,26.2509599 C49.5189311,25.8105094 48.8382032,25.491937 48.0567736,25.2948404 L48.0567736,25.2948404 C47.2757404,25.0985483 46.4510962,25 45.5840304,25 L45.5840304,25 L42,25 Z M44.3890893,27.2372472 L45.7985172,27.2372472 C46.2980613,27.2372472 46.7757999,27.3024098 47.2293542,27.4311259 L47.2293542,27.4311259 C47.6837014,27.5610487 48.0797685,27.7553297 48.416366,28.0135664 L48.416366,28.0135664 C48.75336,28.2730098 49.0213694,28.6020404 49.2207905,29.0010604 L49.2207905,29.0010604 C49.4198152,29.3996782 49.5189311,29.8686876 49.5189311,30.4068819 L49.5189311,30.4068819 C49.5189311,31.0283395 49.4198152,31.5540644 49.2207905,31.9840568 L49.2207905,31.9840568 C49.0213694,32.4140491 48.748206,32.7603759 48.4013004,33.024244 L48.4013004,33.024244 C48.0543948,33.2885143 47.6432621,33.4775661 47.1686952,33.5918017 L47.1686952,33.5918017 C46.6937319,33.7060372 46.1807081,33.7627528 45.6300202,33.7627528 L45.6300202,33.7627528 L44.3890893,33.7627528 L44.3890893,27.2372472 Z" id="Fill-16" fill="#3A3B3F"></path>
                <path d="M37.6481353,25 L37.6481353,31.5002853 C37.6481353,31.8333214 37.5954467,32.1416447 37.4900694,32.4244704 L37.4900694,32.4244704 C37.3843018,32.7072962 37.2363833,32.9520719 37.0447528,33.1591898 L37.0447528,33.1591898 C36.8542931,33.3663077 36.6283174,33.5279224 36.3668257,33.6440339 L36.3668257,33.6440339 C36.1053339,33.7605378 35.8192541,33.8182013 35.5078057,33.8182013 L35.5078057,33.8182013 C35.1955768,33.8182013 34.9071552,33.7605378 34.6409801,33.6440339 L34.6409801,33.6440339 C34.3744146,33.5279224 34.1457069,33.3663077 33.9548569,33.1591898 L33.9548569,33.1591898 C33.7640069,32.9520719 33.6160885,32.7072962 33.5103209,32.4244704 L33.5103209,32.4244704 C33.4049436,32.1416447 33.352255,31.8333214 33.352255,31.5002853 L33.352255,31.5002853 L33.352255,25 L31,25 L31,31.5908994 C31,32.2271593 31.0952298,32.8132088 31.2868604,33.3482633 L31.2868604,33.3482633 C31.47732,33.8841024 31.7618387,34.3481563 32.1384649,34.7423864 L32.1384649,34.7423864 C32.5154814,35.1362242 32.9849957,35.4449397 33.5473981,35.6669638 L33.5473981,35.6669638 C34.1105811,35.8885957 34.7639202,36 35.5078057,36 L35.5078057,36 C36.2407632,36 36.8890286,35.8885957 37.4526019,35.6669638 L37.4526019,35.6669638 C38.0150043,35.4449397 38.4849089,35.1362242 38.8619254,34.7423864 L38.8619254,34.7423864 C39.2385516,34.3481563 39.52268,33.8841024 39.7135299,33.3482633 L39.7135299,33.3482633 C39.9039896,32.8132088 40,32.2271593 40,31.5908994 L40,31.5908994 L40,25 L37.6481353,25 Z" id="Fill-13" fill="#3A3B3F"></path>
                <path d="M21.2971297,25.3846823 C20.6254024,25.6411372 20.0450032,26.0082121 19.5551866,26.4862899 L19.5551866,26.4862899 C19.0657427,26.9643677 18.6840286,27.5427309 18.4107899,28.223676 L18.4107899,28.223676 C18.1368057,28.9034728 18,29.6625026 18,30.5 L18,30.5 C18,31.3378802 18.1368057,32.09691 18.4107899,32.7770896 L18.4107899,32.7770896 C18.6840286,33.4568864 19.0657427,34.036015 19.5551866,34.5140928 L19.5551866,34.5140928 C20.0450032,34.9925534 20.6254024,35.3592456 21.2971297,35.6157005 L21.2971297,35.6157005 C21.968857,35.8717726 22.703582,36 23.5005592,36 L23.5005592,36 C24.2967908,36 25.0315158,35.8717726 25.7032431,35.6157005 L25.7032431,35.6157005 C26.3749703,35.3592456 26.9561151,34.9925534 27.445559,34.5140928 L27.445559,34.5140928 C27.9346301,34.036015 28.3163442,33.4568864 28.5903284,32.7770896 L28.5903284,32.7770896 C28.8639398,32.09691 29,31.3378802 29,30.5 L29,30.5 C29,29.6625026 28.8639398,28.9034728 28.5903284,28.223676 L28.5903284,28.223676 C28.3163442,27.5427309 27.9346301,26.9643677 27.445559,26.4862899 L27.445559,26.4862899 C26.9561151,26.0082121 26.3749703,25.6411372 25.7032431,25.3846823 L25.7032431,25.3846823 C25.0315158,25.1286102 24.2967908,25 23.5005592,25 L23.5005592,25 C22.703582,25 21.968857,25.1286102 21.2971297,25.3846823 M22.1973635,33.6195629 C21.8089396,33.4522931 21.4749398,33.2184216 21.1968552,32.9171828 L21.1968552,32.9171828 C20.918025,32.6170924 20.7048019,32.2618832 20.5556949,31.8527037 L20.5556949,31.8527037 C20.4069606,31.443907 20.3327798,30.9933885 20.3327798,30.5 L20.3327798,30.5 C20.3327798,30.0169462 20.4069606,29.5683416 20.5556949,29.1549516 L20.5556949,29.1549516 C20.7048019,28.7407962 20.918025,28.3836732 21.1968552,28.0828172 L21.1968552,28.0828172 C21.4749398,27.7823439 21.8089396,27.5484724 22.1973635,27.3804371 L22.1973635,27.3804371 C22.5857874,27.2131672 23.0204344,27.1293409 23.5005592,27.1293409 L23.5005592,27.1293409 C23.9803111,27.1293409 24.4145854,27.2131672 24.803382,27.3804371 L24.803382,27.3804371 C25.1925514,27.5484724 25.5250602,27.7823439 25.8035176,28.0828172 L25.8035176,28.0828172 C26.0823478,28.3836732 26.2963164,28.7407962 26.4446779,29.1549516 L26.4446779,29.1549516 C26.5934122,29.5683416 26.6679657,30.0169462 26.6679657,30.5 L26.6679657,30.5 C26.6679657,30.9933885 26.5934122,31.443907 26.4446779,31.8527037 L26.4446779,31.8527037 C26.2963164,32.2618832 26.0823478,32.6170924 25.8035176,32.9171828 L25.8035176,32.9171828 C25.5250602,33.2184216 25.1925514,33.4522931 24.803382,33.6195629 L24.803382,33.6195629 C24.4145854,33.7872155 23.9803111,33.8710418 23.5005592,33.8710418 L23.5005592,33.8710418 C23.0204344,33.8710418 22.5857874,33.7872155 22.1973635,33.6195629" id="Fill-10" fill="#3A3B3F"></path>
                <polygon id="Fill-7" fill="#3A3B3F" points="11 25 11 36 18 36 18 33.7627528 13.4540113 33.7627528 13.4540113 25"></polygon>
                <path d="M3.58940021,25.3846823 C2.85772259,25.6411372 2.22587452,26.0082121 1.69263858,26.4862899 L1.69263858,26.4862899 C1.15940265,26.9643677 0.744257771,27.5427309 0.44679815,28.223676 L0.44679815,28.223676 C0.148932717,28.9034728 0,29.6625026 0,30.5 L0,30.5 C0,31.3378802 0.148932717,32.09691 0.44679815,32.7770896 L0.44679815,32.7770896 C0.744257771,33.4568864 1.15940265,34.036015 1.69263858,34.5140928 L1.69263858,34.5140928 C2.22587452,34.9925534 2.85772259,35.3592456 3.58940021,35.6157005 L3.58940021,35.6157005 C4.32067202,35.8717726 5.11971431,36 5.9877445,36 L5.9877445,36 C6.75066959,36 7.49249249,35.8522514 8.21361902,35.5563714 L8.21361902,35.5563714 C8.93474556,35.2608741 9.53047642,34.8027003 10,34.181467 L10,34.181467 L7.96242188,32.7472336 C7.71163055,33.1024428 7.39306874,33.3784188 7.00673647,33.5751618 L7.00673647,33.5751618 C6.61959257,33.7726703 6.17522928,33.8710418 5.67405243,33.8710418 L5.67405243,33.8710418 C5.23537051,33.8710418 4.82509537,33.7872155 4.44363282,33.6195629 L4.44363282,33.6195629 C4.06217028,33.4522931 3.73062251,33.2184216 3.44817791,32.9171828 L3.44817791,32.9171828 C3.1657333,32.6170924 2.94416038,32.2618832 2.7822417,31.8527037 L2.7822417,31.8527037 C2.62032303,31.443907 2.53916078,30.9933885 2.53916078,30.5 L2.53916078,30.5 C2.53916078,30.0169462 2.62032303,29.5683416 2.7822417,29.1549516 L2.7822417,29.1549516 C2.94416038,28.7407962 3.16857398,28.3836732 3.45629413,28.0828172 L3.45629413,28.0828172 C3.74320266,27.7823439 4.08327246,27.5484724 4.47488029,27.3804371 L4.47488029,27.3804371 C4.86689392,27.2131672 5.29258989,27.1293409 5.75277981,27.1293409 L5.75277981,27.1293409 C6.2121581,27.1293409 6.61675189,27.2032153 6.96696697,27.3513466 L6.96696697,27.3513466 C7.31677624,27.4987125 7.61261261,27.711149 7.85325866,27.9863595 L7.85325866,27.9863595 L9.73378784,26.5383464 C9.4935476,26.2524184 9.22165409,26.0108915 8.91851311,25.8137657 L8.91851311,25.8137657 C8.61537213,25.6162572 8.299651,25.4585566 7.97053811,25.3402812 L7.97053811,25.3402812 C7.64142521,25.2220057 7.30663096,25.1362656 6.96696697,25.0815297 L6.96696697,25.0815297 C6.62730298,25.0271766 6.30103076,25 5.9877445,25 L5.9877445,25 C5.11971431,25 4.32067202,25.1286102 3.58940021,25.3846823" id="Fill-4" fill="#3A3B3F"></path>
                <path d="M44.3049964,0 C34.7560622,0 26.5441449,5.79301489 23.010798,14.0379515 L23.010798,14.0379515 C17.1075185,14.7241428 12.1058653,18.3919749 9.56786638,23.4861862 L9.56786638,23.4861862 L14.645446,23.4861862 C16.3367862,21.203743 18.7644545,19.4951623 21.5784776,18.7167432 L21.5784776,18.7167432 C21.5737322,18.7399972 21.603391,18.7321145 21.6326543,18.7242318 L21.6326543,18.7242318 C21.6619176,18.7159549 21.6911809,18.7080722 21.6872264,18.7309321 L21.6872264,18.7309321 C22.8466862,18.3762094 23.9144015,18.3068414 25.1304107,18.3068414 L25.1304107,18.3068414 C25.4621933,18.3068414 25.7884397,18.3233952 26.1115224,18.3474375 L26.1115224,18.3474375 C28.2184807,10.2960218 35.5762258,4.33549896 44.3049964,4.33549896 L44.3049964,4.33549896 C51.4369394,4.33549896 57.6506473,8.31627529 60.8356026,14.163681 L60.8356026,14.163681 C55.2079518,15.1265559 50.504468,18.8168538 48.1475853,23.8152899 L48.1475853,23.8152899 C48.1582624,23.8176548 48.169335,23.8192313 48.1800122,23.8219903 L48.1800122,23.8219903 C49.1619149,24.0651723 50.0374414,24.4699503 50.7840513,25.0248942 L50.7840513,25.0248942 C51.1980876,25.3327146 51.5642744,25.6933493 51.888148,26.0973389 L51.888148,26.0973389 C53.6906097,21.8611623 57.708383,18.7794108 62.4873978,18.3107828 L62.4873978,18.3107828 C62.4881887,18.3103887 62.4885841,18.3103887 62.489375,18.3103887 L62.489375,18.3103887 C62.9073658,18.2693985 63.3308929,18.2473269 63.7595608,18.2473269 L63.7595608,18.2473269 C70.8673814,18.2473269 76.6500486,24.0111757 76.6500486,31.095381 L76.6500486,31.095381 C76.6500486,38.048733 71.0777609,43.7258719 64.150661,43.9331875 L64.150661,43.9331875 L63.3684607,43.9331875 C57.8365088,43.7676503 53.1729655,40.1128247 51.5164249,35.1068999 L51.5164249,35.1068999 C51.3206771,35.3126391 51.1162294,35.5093131 50.8939864,35.6886451 L50.8939864,35.6886451 C50.1841534,36.2617192 49.3584536,36.7003929 48.4406138,36.992842 L48.4406138,36.992842 C48.1811985,37.0752165 47.9166424,37.1422196 47.6493181,37.2005518 L47.6493181,37.2005518 C48.6474342,39.8061867 50.2612662,42.1110956 52.3164205,43.9331875 L52.3164205,43.9331875 L24.6305617,43.9331875 C19.9923272,43.7940574 15.9650631,41.2018232 13.8070917,37.4177209 L13.8070917,37.4177209 L9.26099708,37.4177209 L9,37.4299391 C11.4873813,43.6541391 17.5231366,48.0999962 24.6056483,48.2678982 L24.6056483,48.2678982 L24.6056483,48.2785399 L64.7477907,48.2785399 L64.7477907,48.2485856 C64.8094809,48.2450383 64.8707757,48.238338 64.9320705,48.2347908 L64.9320705,48.2347908 L57.1361667,55.9945457 L57.1361667,58.5820503 L57.137353,62 L76.4780278,42.7830979 L76.4285965,42.734225 C79.2639739,39.6706038 81,35.5818341 81,31.095381 L81,31.095381 C81,22.2348035 74.2366165,14.9212109 65.5857495,14.0087854 L65.5857495,14.0087854 C62.04568,5.78000839 53.8424626,0 44.3049964,0 Z" id="Fill-1" fill="#86888F"></path>
            </g>
        </g>
    </g>
</svg>