<?xml version="1.0" standalone="no"?>
<!DOCTYPE svg PUBLIC "-//W3C//DTD SVG 20010904//EN"
 "http://www.w3.org/TR/2001/REC-SVG-20010904/DTD/svg10.dtd">
<svg version="1.0" xmlns="http://www.w3.org/2000/svg"
 width="1296.000000pt" height="1296.000000pt" viewBox="0 0 1296.000000 1296.000000"
 preserveAspectRatio="xMidYMid meet">
<metadata>
Created by potrace 1.14, written by Peter Selinger 2001-2017
</metadata>
<g transform="translate(0.000000,1296.000000) scale(0.100000,-0.100000)"
fill="#000000" stroke="none">
<path d="M6869 11436 c-2 -2 -47 -7 -99 -10 -52 -4 -104 -9 -115 -11 -11 -3
-42 -7 -70 -11 -50 -6 -97 -12 -125 -18 -8 -1 -35 -6 -60 -10 -25 -4 -58 -11
-75 -16 -16 -5 -43 -11 -60 -13 -35 -5 -153 -35 -175 -44 -8 -3 -19 -7 -25 -8
-5 -1 -12 -3 -15 -4 -3 -2 -13 -4 -22 -7 -29 -7 -42 -11 -58 -17 -8 -3 -46
-16 -85 -28 -38 -12 -76 -26 -82 -32 -7 -5 -13 -7 -13 -4 0 6 -39 -9 -117 -44
-23 -10 -44 -19 -47 -19 -13 0 -301 -144 -304 -152 -2 -4 -8 -8 -14 -8 -15 0
-188 -103 -188 -113 0 -4 -4 -6 -9 -3 -4 3 -21 -5 -36 -18 -16 -13 -40 -30
-54 -38 -14 -7 -28 -15 -31 -18 -3 -3 -39 -30 -80 -60 -41 -30 -78 -59 -82
-65 -4 -5 -8 -7 -8 -2 0 4 -8 -1 -18 -10 -11 -10 -43 -38 -72 -63 -56 -46
-146 -126 -166 -144 -6 -6 -30 -28 -53 -49 -22 -21 -41 -42 -41 -47 0 -6 -7
-10 -15 -10 -8 0 -15 -3 -15 -7 0 -5 -27 -36 -60 -71 -33 -35 -60 -65 -60 -67
0 -2 -12 -16 -27 -32 -16 -15 -44 -48 -63 -72 -19 -24 -40 -49 -46 -55 -46
-48 -251 -352 -326 -486 -29 -50 -136 -265 -162 -322 -10 -21 -24 -38 -34 -39
-49 -3 -80 -7 -112 -14 -19 -4 -48 -8 -65 -9 -16 0 -32 -3 -35 -6 -3 -3 -32
-11 -65 -18 -33 -7 -67 -15 -75 -17 -19 -5 -90 -25 -110 -30 -8 -2 -16 -4 -17
-5 -2 -2 -6 -3 -10 -5 -5 -1 -21 -7 -36 -13 -16 -7 -33 -12 -38 -12 -30 0
-429 -178 -449 -200 -3 -3 -27 -19 -55 -35 -27 -15 -53 -33 -57 -39 -4 -6 -8
-8 -8 -4 0 14 -208 -137 -339 -246 -52 -44 -268 -266 -311 -320 -25 -32 -54
-68 -65 -80 -24 -28 -106 -142 -120 -167 -5 -10 -34 -56 -63 -104 -28 -47 -52
-90 -52 -95 0 -6 -4 -10 -10 -10 -5 0 -10 -9 -10 -20 0 -11 -4 -20 -10 -20 -5
0 -10 -8 -10 -19 0 -18 17 -18 405 -19 223 0 405 3 405 7 0 5 10 19 23 33 12
13 40 46 61 72 75 93 291 296 314 296 6 0 12 3 14 8 6 14 146 111 152 105 3
-4 6 -1 6 5 0 7 6 12 14 12 8 0 16 4 18 9 7 20 331 170 374 173 13 1 24 5 24
8 0 6 69 28 115 36 17 3 46 9 65 14 19 5 49 12 65 14 17 3 41 8 55 11 62 14
149 19 332 19 l197 1 10 40 c5 22 10 43 11 47 0 4 7 23 16 43 8 19 14 36 13
37 -1 4 10 34 48 138 59 158 229 498 255 508 4 2 8 8 8 14 0 12 61 102 72 106
4 2 8 8 8 13 0 9 69 107 95 135 6 6 19 23 30 38 87 120 331 359 495 486 18 14
37 30 44 36 17 15 266 178 306 200 19 11 37 21 40 24 3 3 59 31 125 64 137 67
271 122 395 161 81 26 92 29 115 35 6 1 32 9 59 17 27 8 57 16 65 18 9 2 51
10 93 19 42 9 94 18 115 21 21 3 52 9 68 12 17 3 44 7 60 8 17 1 73 6 125 10
167 14 438 9 595 -10 116 -14 153 -20 186 -29 14 -4 39 -9 55 -10 16 -2 36 -6
44 -9 14 -5 33 -9 105 -23 17 -3 38 -10 48 -15 9 -6 22 -7 27 -4 5 3 11 1 14
-4 3 -5 23 -12 43 -16 21 -4 42 -10 48 -13 5 -4 15 -7 20 -8 52 -8 403 -159
417 -179 4 -5 8 -6 8 -2 0 5 14 -1 30 -13 17 -12 36 -23 43 -24 7 -1 23 -9 37
-18 92 -58 141 -88 146 -88 2 0 10 -5 17 -10 7 -6 57 -43 112 -82 55 -39 102
-73 105 -77 3 -3 21 -18 40 -33 19 -14 53 -42 75 -62 22 -20 44 -36 48 -36 5
0 5 -4 2 -10 -3 -5 -2 -10 4 -10 18 0 217 -205 295 -305 22 -27 43 -51 48 -53
4 -2 8 -10 8 -18 0 -8 4 -14 9 -14 5 0 17 -13 28 -29 10 -16 46 -70 81 -119
34 -50 62 -96 62 -101 0 -5 4 -11 8 -13 8 -3 72 -110 72 -120 0 -4 -131 -32
-155 -33 -5 0 -12 -3 -15 -7 -3 -4 -23 -9 -45 -12 -22 -2 -42 -5 -45 -6 -3 -2
-8 -2 -12 -1 -5 0 -8 -4 -8 -10 0 -6 -7 -9 -15 -5 -8 3 -15 1 -15 -5 0 -6 -3
-8 -8 -6 -6 5 -104 -26 -154 -47 -9 -4 -22 -9 -30 -10 -7 -2 -26 -9 -43 -15
-40 -17 -80 -32 -82 -32 -1 0 -62 -31 -135 -68 -141 -71 -281 -155 -369 -220
-60 -45 -55 -41 -124 -96 -28 -22 -61 -49 -75 -60 -36 -29 -302 -295 -295
-295 3 0 -4 -11 -17 -24 -31 -31 -58 -65 -58 -71 0 -3 -8 -14 -17 -24 -10 -11
-25 -27 -33 -37 -21 -26 -150 -223 -150 -230 0 -3 -8 -18 -19 -32 -10 -15 -37
-63 -60 -107 -40 -77 -46 -113 -16 -101 8 3 15 1 15 -4 0 -6 10 -10 23 -10 13
0 27 -4 33 -8 5 -4 27 -14 49 -21 51 -17 187 -85 228 -114 61 -43 72 -53 145
-125 41 -40 75 -72 76 -70 1 2 24 48 51 103 27 55 52 102 57 103 4 2 8 9 8 17
0 7 7 18 15 25 8 7 15 21 15 31 0 11 5 19 10 19 6 0 14 8 17 18 4 9 11 22 15
27 4 6 40 52 80 104 66 87 187 216 283 301 59 52 191 150 203 150 5 0 12 7 16
15 3 8 10 15 15 15 5 0 42 19 83 43 40 24 100 55 133 71 33 15 68 32 79 38 23
12 204 78 229 83 10 3 27 7 37 10 10 3 27 8 37 10 10 3 36 9 58 14 22 6 56 13
75 16 19 3 49 8 65 11 50 9 115 15 206 18 48 2 92 7 98 11 7 3 18 2 26 -5 9
-8 15 -8 20 0 3 6 11 7 17 4 5 -4 42 -8 82 -10 76 -3 201 -18 201 -23 0 -1 16
-4 35 -6 40 -4 51 -6 164 -35 75 -19 110 -30 161 -50 128 -50 166 -66 203 -87
23 -13 42 -22 42 -19 0 5 108 -57 127 -74 7 -5 15 -10 19 -10 19 0 209 -142
313 -235 54 -48 135 -134 201 -215 83 -101 85 -104 93 -120 4 -8 30 -49 57
-90 65 -100 211 -400 194 -400 -2 0 2 -12 9 -27 15 -29 64 -210 73 -266 3 -17
7 -43 9 -57 2 -14 6 -34 8 -45 23 -103 24 -456 1 -567 -2 -12 -7 -43 -10 -68
-3 -25 -10 -63 -16 -85 -7 -22 -12 -47 -13 -55 -5 -53 -84 -275 -138 -390 -45
-95 -144 -263 -158 -268 -5 -2 -7 -7 -5 -11 3 -4 -8 -22 -23 -39 -16 -17 -31
-35 -33 -40 -26 -70 -445 -466 -480 -454 -5 1 -8 -2 -8 -7 0 -12 -147 -99
-262 -155 -108 -53 -253 -107 -262 -99 -3 4 -6 2 -6 -4 0 -6 -17 -14 -37 -18
-21 -5 -42 -10 -48 -11 -11 -3 -87 -23 -120 -30 -29 -7 -64 -13 -115 -19 -25
-3 -56 -8 -70 -11 -34 -8 -440 -12 -440 -5 0 3 -12 6 -27 7 -44 1 -122 12
-198 30 -38 9 -77 16 -85 16 -8 0 -21 5 -27 11 -7 5 -13 6 -13 2 0 -4 -7 -2
-15 5 -8 7 -15 10 -15 7 0 -19 -417 155 -440 183 -3 3 -27 19 -54 34 -239 138
-506 399 -657 641 -24 39 -50 79 -56 90 -42 67 -140 279 -146 314 -2 9 -8 26
-15 38 -12 22 -13 22 -59 -22 -111 -106 -299 -211 -467 -260 -50 -14 -92 -28
-95 -30 -12 -12 169 -393 192 -403 4 -2 7 -8 7 -14 0 -5 14 -29 30 -53 17 -24
30 -48 30 -53 0 -6 4 -12 8 -14 5 -1 23 -25 42 -53 43 -63 139 -186 156 -201
8 -6 14 -14 14 -18 0 -4 56 -64 124 -132 67 -69 118 -127 113 -131 -6 -3 -38
-5 -71 -4 -34 1 -1058 3 -2276 5 -1218 2 -2228 6 -2245 9 -16 3 -43 8 -60 10
-78 13 -113 19 -150 29 -22 5 -47 12 -55 13 -8 2 -30 8 -48 14 -18 5 -35 10
-37 10 -3 1 -7 2 -10 2 -3 1 -8 2 -12 3 -5 1 -21 6 -38 13 -16 6 -57 21 -90
34 -185 69 -412 205 -594 354 -113 94 -391 416 -391 454 0 6 -4 11 -10 11 -5
0 -10 5 -10 11 0 5 -10 24 -22 42 l-23 32 -350 -2 c-192 -1 -364 -2 -382 -2
-31 -1 -32 -2 -21 -32 43 -123 274 -523 355 -614 10 -12 34 -41 53 -65 19 -25
38 -46 42 -48 4 -2 8 -8 8 -13 0 -20 281 -288 390 -372 63 -49 123 -95 133
-103 9 -8 20 -14 23 -14 3 0 25 -13 49 -30 24 -16 48 -30 54 -30 6 0 11 -4 11
-8 0 -5 20 -19 45 -31 24 -12 47 -26 50 -32 4 -5 10 -7 15 -4 5 3 11 1 15 -4
11 -18 312 -156 350 -161 3 0 25 -9 50 -20 25 -11 45 -17 45 -13 0 3 7 0 15
-7 8 -7 15 -10 15 -7 0 3 16 -1 35 -9 19 -8 38 -14 42 -15 13 0 57 -10 73 -16
20 -8 19 -8 70 -18 53 -10 59 -12 63 -15 1 -1 13 -3 27 -4 14 -2 39 -6 55 -9
17 -3 52 -8 78 -12 27 -4 57 -8 68 -10 81 -16 596 -19 3456 -19 1783 -1 3241
-2 3240 -3 -7 -8 -237 -241 -237 -239 0 0 -224 -223 -499 -496 l-498 -497 0
-475 c0 -262 2 -476 4 -476 6 0 53 47 1178 1165 379 377 689 685 690 685 8 3
1215 1211 1215 1217 0 4 17 27 38 49 20 23 53 61 72 85 19 24 40 51 47 59 52
65 163 227 163 238 0 3 6 13 14 21 24 27 166 307 159 314 -3 4 -1 7 5 7 7 0
12 5 12 10 0 6 7 27 17 48 9 20 17 39 18 42 5 21 39 117 44 125 3 6 6 15 7 20
1 6 14 51 29 100 15 50 28 99 30 110 1 11 8 41 14 66 63 268 76 670 31 974
-24 169 -83 405 -130 520 -5 11 -25 63 -45 115 -53 134 -116 259 -212 415 -7
11 -18 30 -24 43 -7 12 -16 22 -21 22 -4 0 -8 7 -8 15 0 8 -4 15 -10 15 -5 0
-10 5 -10 10 0 9 -71 111 -90 130 -3 3 -40 47 -84 98 -76 91 -138 155 -228
239 -63 58 -248 206 -286 228 -18 11 -32 23 -32 27 0 4 -7 8 -15 8 -8 0 -15 5
-15 10 0 6 -5 10 -10 10 -12 0 -92 51 -102 65 -4 5 -8 6 -8 1 0 -5 -8 -2 -17
6 -16 14 -239 126 -323 161 -81 35 -140 56 -140 51 0 -4 -6 -2 -13 4 -10 9
-148 54 -207 68 -8 1 -46 10 -83 19 -94 22 -238 46 -287 47 -17 1 -60 37 -60
51 0 16 -121 262 -131 265 -5 2 -9 10 -9 17 0 8 -13 34 -30 58 -16 25 -30 48
-30 52 0 11 -182 280 -191 283 -5 2 -9 8 -9 13 0 6 -5 15 -10 22 -29 34 -54
65 -78 97 -95 122 -343 380 -467 485 -26 22 -53 45 -59 50 -44 39 -157 125
-165 125 -5 0 -11 4 -13 9 -4 12 -252 179 -282 191 -13 4 -29 14 -37 22 -43
39 -518 266 -594 283 -12 2 -42 13 -70 25 -11 5 -31 12 -45 15 -14 4 -60 17
-102 31 -42 13 -87 26 -100 28 -13 3 -23 5 -23 6 0 2 -21 7 -140 32 -60 12
-112 25 -115 28 -3 3 -14 5 -25 6 -28 1 -115 13 -143 18 -13 3 -51 8 -85 11
-34 3 -75 8 -92 11 -37 6 -551 15 -556 10z"/>
<path d="M1945 7442 c-93 -1 -176 -4 -182 -7 -9 -3 -10 -11 -3 -30 5 -14 6
-25 2 -25 -4 0 -7 -13 -7 -30 0 -16 3 -30 7 -30 4 0 3 -13 -2 -30 -5 -16 -5
-30 -1 -30 5 0 5 -17 1 -38 -4 -21 -3 -48 1 -60 5 -12 5 -22 1 -22 -7 0 -6
-96 2 -116 3 -7 2 -15 -1 -18 -8 -8 -8 -74 -1 -82 4 -3 3 -18 -2 -32 -4 -15
-3 -37 1 -50 5 -12 5 -22 1 -22 -7 0 -6 -96 2 -116 3 -7 2 -15 -1 -18 -6 -5
-7 -65 -3 -83 1 -5 1 -24 0 -43 -5 -85 -5 -110 2 -110 4 0 3 -12 -2 -26 -6
-15 -6 -32 -1 -42 6 -11 6 -24 0 -34 -6 -11 -6 -19 1 -23 6 -4 7 -13 1 -24 -5
-9 -6 -23 -1 -31 4 -7 6 -18 4 -24 -7 -19 -10 -106 -3 -106 3 0 3 -20 -1 -45
-4 -25 -3 -48 1 -51 5 -2 4 -15 -1 -28 -4 -12 -4 -29 0 -36 5 -8 5 -21 1 -29
-8 -18 -7 -53 3 -69 3 -6 2 -13 -3 -16 -6 -4 -6 -18 -1 -36 5 -17 6 -30 2 -30
-6 0 -7 -80 -1 -87 1 -2 2 -6 3 -10 4 -23 18 -33 35 -23 10 5 21 6 25 3 9 -10
56 -10 56 0 0 4 9 3 20 -3 14 -7 26 -8 39 0 14 7 22 7 26 0 4 -6 11 -7 17 -4
15 10 68 11 68 2 0 -4 14 -3 30 2 17 5 30 5 30 2 0 -9 64 -7 79 3 6 3 11 1 11
-5 0 -8 6 -8 20 0 14 8 20 8 20 0 0 -7 6 -8 19 0 14 7 22 7 26 0 4 -6 11 -7
17 -4 15 10 68 11 68 2 0 -4 14 -3 30 2 17 5 30 5 30 2 0 -9 64 -7 79 3 6 3
11 1 11 -5 0 -8 6 -8 20 0 14 8 20 8 20 0 0 -7 6 -8 19 0 14 7 22 7 26 0 4 -6
11 -7 17 -4 15 10 68 11 68 2 0 -4 14 -3 30 2 17 5 30 5 30 2 0 -9 69 -7 77 2
4 3 12 1 18 -4 9 -7 15 -6 22 2 16 21 23 48 13 48 -6 0 -6 9 0 25 6 16 6 25 0
25 -6 0 -6 9 0 25 6 15 6 26 0 30 -7 4 -6 13 0 25 7 13 7 21 0 25 -6 4 -8 10
-5 15 4 7 9 95 6 128 -1 7 -6 10 -11 7 -6 -3 -10 -1 -10 5 0 6 -5 8 -12 4 -18
-11 -48 -12 -54 -2 -3 4 -9 6 -14 3 -16 -10 -80 -12 -80 -3 0 5 -5 6 -12 2
-18 -11 -68 -12 -68 -2 0 5 -5 6 -11 3 -16 -11 -69 -12 -69 -2 0 4 -6 5 -12 1
-18 -11 -48 -12 -54 -2 -3 4 -9 6 -14 3 -16 -10 -80 -12 -80 -3 0 5 -5 6 -12
2 -17 -11 -68 -12 -68 -2 0 5 -8 5 -17 1 -22 -10 -54 -10 -71 0 -6 5 -12 4
-12 0 0 -15 -40 -9 -44 7 -3 8 -4 323 -4 699 0 660 0 685 -18 690 -11 3 -95 5
-189 3z"/>
<path d="M5217 7444 c-2 -3 -62 -5 -131 -5 l-126 0 -1 -42 c-1 -23 -1 -45 0
-49 2 -14 3 -358 2 -463 0 -11 0 -40 0 -65 0 -50 0 -51 -1 -275 -1 -137 3
-234 14 -332 1 -13 5 -26 9 -29 4 -4 7 -15 7 -24 0 -24 39 -116 74 -175 25
-43 119 -143 168 -182 15 -11 118 -66 128 -68 3 0 28 -8 55 -17 55 -19 116
-29 186 -33 25 -1 50 -5 56 -8 7 -4 14 -3 18 3 4 7 12 7 24 0 10 -5 21 -7 24
-3 4 3 32 7 64 9 32 3 76 9 98 15 22 6 47 12 55 14 8 2 29 9 45 16 17 7 32 13
35 13 3 1 31 16 64 34 145 83 255 234 292 403 3 13 7 35 10 49 3 14 7 48 8 76
2 28 6 56 9 61 3 5 2 15 -3 23 -5 8 -5 21 0 30 5 9 5 22 0 30 -5 8 -5 21 0 31
5 9 7 19 4 22 -7 7 -11 97 -4 97 3 0 5 34 5 75 0 41 -3 75 -7 75 -4 0 -4 10 1
23 5 13 5 30 0 39 -5 10 -5 19 0 22 4 3 5 24 1 46 -4 22 -5 40 -1 40 3 0 6 34
6 75 0 41 -3 75 -7 75 -4 0 -4 10 1 23 5 13 5 30 0 39 -5 10 -5 19 0 22 4 3 5
24 1 46 -4 22 -5 40 -1 40 3 0 6 16 6 35 0 19 -2 35 -5 35 -7 0 -5 59 2 65 7
7 -2 54 -11 60 -8 4 -59 5 -246 6 l-121 0 1 -533 c1 -293 -1 -537 -3 -542 -3
-4 -6 -25 -7 -46 -5 -58 -53 -150 -108 -203 -27 -26 -52 -46 -54 -43 -3 3 -12
-2 -20 -10 -8 -8 -19 -12 -24 -9 -5 4 -9 2 -9 -3 0 -10 -3 -11 -100 -17 -85
-5 -134 6 -202 48 -73 44 -136 138 -153 227 -3 19 -7 281 -8 581 l-1 546 -49
2 c-27 1 -53 3 -57 6 -4 2 -10 2 -13 -1z"/>
<path d="M6722 7426 c3 -15 1 -26 -5 -26 -7 0 -7 -4 0 -11 8 -8 8 -20 3 -35
-6 -14 -6 -26 0 -29 5 -3 6 -16 1 -28 -4 -12 -5 -33 -1 -47 3 -14 3 -42 0 -62
-4 -20 -4 -42 1 -49 4 -7 4 -20 -1 -29 -5 -9 -5 -22 0 -30 4 -7 4 -24 0 -36
-6 -14 -5 -26 0 -29 6 -3 6 -15 0 -30 -5 -14 -5 -27 0 -30 5 -3 5 -18 0 -35
-5 -17 -5 -30 0 -30 5 0 5 -13 0 -30 -5 -17 -5 -30 0 -30 5 0 5 -13 0 -30 -5
-16 -6 -30 -2 -30 4 0 7 -16 7 -35 0 -19 -3 -35 -7 -35 -4 0 -3 -13 2 -30 5
-17 5 -30 0 -30 -5 0 -5 -13 0 -29 4 -16 6 -32 3 -34 -7 -8 -9 -167 -2 -167 4
0 4 -15 0 -32 -4 -18 -4 -48 0 -65 3 -18 4 -33 0 -33 -3 0 -6 -11 -6 -25 0
-14 3 -25 7 -25 4 0 3 -13 -2 -29 -4 -15 -4 -34 0 -42 5 -7 5 -20 0 -29 -5 -9
-5 -22 0 -30 5 -8 5 -21 0 -30 -5 -9 -5 -22 0 -30 5 -8 5 -21 0 -31 -5 -9 -7
-19 -3 -22 7 -8 8 -106 0 -113 -3 -3 -1 -19 3 -35 5 -16 5 -29 0 -29 -5 0 -5
-13 0 -29 4 -15 4 -34 0 -41 -4 -7 -3 -26 2 -42 8 -21 13 -26 23 -18 6 5 14 7
18 4 9 -9 67 -11 67 -2 0 4 11 3 25 -2 15 -6 26 -6 30 0 4 6 13 7 23 1 9 -5
26 -5 37 -1 11 4 28 4 37 -1 10 -6 19 -5 23 1 5 8 11 8 20 0 9 -8 15 -8 20 0
4 6 13 7 23 1 9 -5 26 -5 37 -1 11 4 28 4 37 -1 10 -6 19 -5 23 1 4 7 12 7 18
2 14 -10 27 -10 44 1 6 4 14 3 18 -3 4 -6 11 -7 17 -4 15 9 68 11 68 3 0 -4
16 -3 35 1 21 5 35 4 35 -2 0 -5 6 -6 13 -1 6 4 32 9 57 10 109 7 297 60 395
112 107 56 219 150 306 259 27 33 90 165 109 227 33 108 35 129 33 295 -1 122
-6 172 -22 235 -24 91 -65 183 -112 252 -41 61 -140 160 -199 198 -25 17 -47
33 -48 38 -2 4 -8 5 -13 1 -5 -3 -9 0 -9 5 0 6 -3 10 -7 9 -5 -1 -24 5 -43 14
-39 18 -138 53 -185 64 -16 4 -32 8 -35 9 -3 0 -27 5 -55 9 -27 5 -61 11 -75
13 -22 4 -212 11 -330 13 -62 1 -282 2 -300 1 -53 -3 -145 1 -153 6 -6 4 -8
-5 -5 -21z m697 -350 c158 -15 297 -77 380 -170 14 -15 34 -37 44 -47 9 -10
15 -19 12 -19 -2 0 6 -19 19 -42 21 -39 42 -113 45 -163 7 -111 1 -172 -30
-277 -7 -27 -17 -48 -22 -48 -4 0 -5 -4 -2 -10 3 -5 2 -10 -4 -10 -5 0 -13 -9
-16 -20 -10 -31 -106 -122 -161 -152 -61 -33 -181 -67 -260 -73 -33 -3 -74 -6
-91 -8 -18 -2 -33 0 -33 5 0 4 -10 4 -22 0 -13 -4 -45 -7 -73 -6 -27 1 -62 2
-76 3 l-26 1 0 519 0 520 36 3 c51 4 205 1 280 -6z"/>
<path d="M818 7435 c-2 -2 -23 -6 -48 -9 -25 -3 -60 -10 -78 -15 -18 -5 -35
-10 -37 -10 -35 -2 -251 -91 -265 -109 -3 -4 -17 -13 -32 -21 -16 -8 -28 -18
-28 -23 0 -4 -5 -8 -10 -8 -14 0 -146 -135 -167 -171 -10 -16 -21 -29 -26 -29
-4 0 -6 -4 -2 -9 3 -5 -1 -15 -8 -23 -7 -7 -21 -31 -31 -53 -9 -22 -21 -49
-26 -60 -55 -119 -74 -370 -40 -526 22 -103 31 -129 65 -199 52 -107 68 -129
155 -220 148 -153 397 -258 622 -264 21 -1 38 -5 38 -9 0 -4 8 -3 18 2 13 7
22 7 29 0 8 -8 13 -8 17 0 4 7 15 7 30 1 13 -5 27 -6 30 -3 3 4 21 8 39 9 17
1 33 3 35 4 1 2 10 3 20 5 44 5 99 19 124 32 15 7 29 13 30 11 7 -5 98 36 98
44 0 5 4 7 9 4 12 -8 114 69 171 128 47 49 48 66 4 90 -10 6 -21 14 -24 17 -3
3 -36 27 -75 53 -38 26 -94 64 -124 86 l-55 38 -42 -43 c-46 -48 -115 -95
-139 -95 -8 0 -15 -4 -15 -9 0 -6 -8 -10 -17 -9 -10 0 -33 -5 -51 -10 -44 -14
-217 -8 -237 8 -8 7 -15 10 -15 6 0 -4 -13 0 -30 9 -16 8 -31 14 -32 13 -2 -1
-29 15 -61 36 -120 79 -199 211 -224 371 -5 36 -5 149 2 185 8 50 35 130 56
168 10 17 17 32 14 32 -6 0 27 40 81 97 22 23 45 43 51 43 6 0 13 4 15 9 6 16
107 61 169 75 72 17 206 15 264 -4 55 -18 115 -50 145 -77 14 -13 32 -26 41
-28 19 -6 297 202 298 222 1 6 -21 31 -49 55 -142 125 -302 179 -537 183 -78
2 -143 2 -145 0z"/>
<path d="M3649 7436 c-2 -2 -27 -6 -56 -10 -156 -18 -344 -109 -457 -219 -51
-50 -136 -158 -136 -173 0 -4 -6 -15 -14 -23 -7 -9 -21 -38 -31 -66 -10 -27
-23 -56 -28 -63 -5 -7 -7 -15 -4 -18 3 -3 -1 -21 -9 -40 -8 -18 -14 -37 -13
-41 1 -5 0 -10 -1 -13 -5 -14 -10 -51 -14 -105 -3 -33 -5 -62 -6 -65 -2 -3 -1
-9 0 -15 7 -32 6 -56 -2 -61 -4 -3 -5 -10 -1 -17 3 -6 7 -25 9 -41 3 -52 13
-119 23 -153 5 -18 7 -33 3 -33 -3 0 -1 -5 6 -12 7 -7 12 -18 12 -26 0 -19 70
-166 81 -170 5 -2 7 -8 3 -13 -3 -5 0 -9 5 -9 6 0 11 -4 11 -10 0 -24 125
-153 199 -204 29 -21 81 -51 115 -66 74 -35 235 -83 253 -76 7 3 13 2 13 -2 0
-4 19 -7 43 -7 23 1 50 -3 60 -7 9 -5 17 -5 17 -1 0 4 23 8 50 8 28 0 50 -4
50 -8 0 -5 5 -5 10 -2 10 6 19 8 90 19 60 10 127 26 165 41 125 48 213 104
299 189 114 113 195 264 223 415 2 14 7 29 10 34 3 6 7 71 9 146 4 234 -31
373 -141 560 -25 43 -138 160 -185 191 -19 13 -37 27 -40 30 -17 20 -186 94
-240 105 -8 2 -35 8 -60 15 -42 11 -311 25 -321 16z m216 -348 c73 -12 182
-65 236 -115 77 -71 140 -192 155 -300 32 -221 -30 -419 -169 -538 -41 -35
-128 -83 -164 -90 -10 -2 -18 -4 -18 -5 0 -14 -190 -20 -256 -8 -192 35 -354
208 -385 412 -13 82 -5 259 12 287 3 5 7 18 9 30 8 39 60 131 98 170 20 22 37
43 37 47 0 10 129 82 146 82 8 0 14 4 14 8 0 5 6 9 13 10 6 0 32 4 57 9 63 13
144 14 215 1z"/>
</g>
</svg>
